# xmcd CD database file
#
# Track frame offsets:
#	150
#	20634
#	39661
#	53044
#	66201
#	79367
#	93235
#	108006
#	121592
#	136997
#	148720
#	162455
#	175308
#	188572
#
# Disc length: 2696 seconds
#
# Revision: 0
# Processed by: cddbd v1.5PL3 Copyright (c) Steve Scherf et al.
# Submitted via: CDex 1.51
#
DISCID=b90a860e
DTITLE=Louis Armstrong - The Complete Rca Victor Recordings Vol 3
DYEAR=1900
DGENRE=Jazz
TTITLE0=Long, Long Journey
TTITLE1=Snafu
TTITLE2=Linger In My Arms A Little Longer
TTITLE3=Whatta Ya Gonna Do
TTITLE4=No Variety Blues
TTITLE5=Joseph'n His Brudders
TTITLE6=Back O'town Blues
TTITLE7=I Want A Little Girl
TTITLE8=Sugar
TTITLE9=Blues For Yesterday
TTITLE10=Blues In The South
TTITLE11=Endie
TTITLE12=The Blues Are Brewin'
TTITLE13=Do Yo Know What It Means To Miss New Orleans
EXTD=
EXTT0=
EXTT1=
EXTT2=
EXTT3=
EXTT4=
EXTT5=
EXTT6=
EXTT7=
EXTT8=
EXTT9=
EXTT10=
EXTT11=
EXTT12=
EXTT13=
PLAYORDER=
